<!DOCTYPE svg PUBLIC "-//W3C//DTD SVG 1.1//EN" "http://www.w3.org/Graphics/SVG/1.1/DTD/svg11.dtd">
<!-- Uploaded to: SVG Repo, www.svgrepo.com, Transformed by: SVG Repo Mixer Tools -->
<svg height="192px" width="192px" version="1.1" id="_x32_" xmlns="http://www.w3.org/2000/svg" xmlns:xlink="http://www.w3.org/1999/xlink" viewBox="-25.6 -25.6 563.20 563.20" xml:space="preserve" fill="#000000">
<g id="SVGRepo_bgCarrier" stroke-width="0"/>
<g id="SVGRepo_tracerCarrier" stroke-linecap="round" stroke-linejoin="round" stroke="#CCCCCC" stroke-width="17.408"/>
<g id="SVGRepo_iconCarrier"> <style type="text/css"> .st0{fill:#000000;} </style> <g> <path class="st0" d="M119.502,329.512c5.425,4.335,9.658,8.011,12.355,11.562c83.346-24.552,140.266-59.013,178.608-91.036 c11.194-9.36,20.758-18.5,28.973-27.148c-24.254-25.265-46.008-48.571-46.008-48.571c-13.382-10.701-21.409-24.082-37.464-24.082 c-16.054,0-24.082,13.38-37.455,24.082c0,0-74.927,80.273-101.682,104.355C90.074,302.757,106.128,318.812,119.502,329.512z M222.171,236.618c8.459,0,15.318,6.868,15.318,15.302c0,8.482-6.858,15.334-15.318,15.334c-8.466,0-15.325-6.852-15.325-15.334 C206.846,243.485,213.705,236.618,222.171,236.618z"/> <path class="st0" d="M373.036,349.588c6.695-6.687,14.878-11.813,22.075-19.394c12.715-13.382,26.747-27.436,0-51.518 c-9.047-8.145-23.612-22.726-38.929-38.452c-8.67,9.085-18.665,18.61-30.275,28.299c-43.5,36.374-108.894,74.919-204.626,100.498 c-13.084,13.406-34.351,33.208-52.608,51.472c-26.763,26.763-10.458,39.259,0,47.624c7.478,5.989,18.445,10.23,27.201,14.894 c101.76-28.135,180.043-66.875,238.985-105.93C350.318,366.826,360.148,359.692,373.036,349.588z M179.706,426.2 c-13.499,0-24.442-10.936-24.442-24.458c0-13.467,10.944-24.411,24.442-24.411c13.499,0,24.442,10.944,24.442,24.411 C204.149,415.264,193.205,426.2,179.706,426.2z M298.784,368.206c-10.286,0-18.626-8.333-18.626-18.634 c0-10.262,8.34-18.602,18.626-18.602c10.284,0,18.618,8.341,18.618,18.602C317.401,359.873,309.068,368.206,298.784,368.206z"/> <path class="st0" d="M212.458,87.36c1.223,1.192,1.772,2.908,1.489,4.594l-7.086,41.273c-0.329,1.944,0.47,3.912,2.069,5.064 c1.599,1.168,3.708,1.316,5.456,0.4l37.064-19.488c1.505-0.792,3.308-0.792,4.821,0l37.064,19.488 c1.748,0.917,3.864,0.768,5.464-0.4c1.592-1.153,2.391-3.12,2.054-5.064l-7.071-41.273c-0.298-1.686,0.266-3.402,1.49-4.594 l29.977-29.224c1.41-1.38,1.928-3.441,1.316-5.315c-0.611-1.874-2.234-3.245-4.186-3.527l-41.438-6.013 c-1.685-0.25-3.151-1.309-3.904-2.83L258.506,2.885C257.636,1.113,255.832,0,253.865,0c-1.976,0-3.779,1.113-4.657,2.885 L230.676,40.45c-0.752,1.52-2.21,2.579-3.904,2.83l-41.43,6.013c-1.952,0.282-3.582,1.654-4.186,3.527 c-0.604,1.874-0.102,3.935,1.309,5.315L212.458,87.36z"/> <path class="st0" d="M443.275,420.493c-18.94-18.932-41.077-39.494-53.996-52.898c-2.9,2.242-5.723,4.484-8.733,6.734 c-62.807,47.058-141.74,94.94-262.376,129.111c0,0,53.518,8.56,136.464,8.56c53.51-1.34,151.186-13.907,188.642-42.277 C453.936,461.641,470.022,447.256,443.275,420.493z M330.893,484.045c-8.498,0-15.38-6.882-15.38-15.38 c0-8.498,6.882-15.38,15.38-15.38c8.498,0,15.388,6.882,15.388,15.38C346.281,477.162,339.39,484.045,330.893,484.045z"/> </g> </g>
</svg>