<!DOCTYPE svg PUBLIC "-//W3C//DTD SVG 1.1//EN" "http://www.w3.org/Graphics/SVG/1.1/DTD/svg11.dtd">
<!-- Uploaded to: SVG Repo, www.svgrepo.com, Transformed by: SVG Repo Mixer Tools -->
<svg height="800px" width="800px" version="1.1" id="_x32_" xmlns="http://www.w3.org/2000/svg" xmlns:xlink="http://www.w3.org/1999/xlink" viewBox="-51.2 -51.2 614.40 614.40" xml:space="preserve" fill="#000000">
<g id="SVGRepo_bgCarrier" stroke-width="0"/>
<g id="SVGRepo_tracerCarrier" stroke-linecap="round" stroke-linejoin="round"/>
<g id="SVGRepo_iconCarrier"> <style type="text/css"> .st0{fill:#000000;} </style> <g> <path class="st0" d="M511.976,213.063l-45.863-9.749l31.374-34.845c-25.373-36.736-80.219-53.454-137.114-40.543 c-5.302-58.1-38.15-105.096-80.929-117.874L256,50.659l-23.444-40.606c-42.779,12.779-75.626,59.775-80.929,117.874 c-56.894-12.911-111.741,3.807-137.113,40.543l31.374,34.844l-45.864,9.749c-1.066,44.634,33.479,90.396,87.097,113.393 c-29.86,50.12-30.91,107.448-3.812,142.931l42.834-19.071l-4.901,46.632c42.12,14.806,96.318-3.907,134.758-47.794 c38.44,43.887,92.638,62.6,134.758,47.794l-4.901-46.632l42.835,19.072c27.097-35.483,26.048-92.811-3.812-142.932 C478.497,303.46,513.042,257.697,511.976,213.063z M315.377,296.385c3.526-2.358,7.678-3.63,11.998-3.63 c3.762,0,7.479,0.998,10.752,2.889c4.986,2.876,8.552,7.525,10.043,13.085c1.49,5.56,0.725,11.369-2.156,16.353 c-3.838,6.65-10.996,10.781-18.68,10.781c-3.765,0-7.484-1-10.758-2.89c-7.126-4.116-11.228-12.025-10.724-20.072l-40.32-23.278 v46.552c7.222,3.587,12.021,11.096,12.021,19.327c0,11.884-9.669,21.551-21.553,21.551c-11.884,0-21.553-9.667-21.553-21.551 c0-8.231,4.799-15.74,12.021-19.327v-46.552l-40.319,23.278c0.504,8.047-3.598,15.956-10.724,20.072 c-3.275,1.889-6.994,2.89-10.758,2.89c-7.684,0-14.842-4.132-18.682-10.781c-2.878-4.984-3.644-10.792-2.154-16.353 c1.49-5.56,5.057-10.209,10.043-13.087c3.272-1.889,6.989-2.887,10.752-2.887c4.321,0,8.473,1.272,11.996,3.63l40.312-23.274 l-40.312-23.272c-3.523,2.359-7.675,3.63-11.996,3.63c-3.762,0-7.479-0.998-10.752-2.89c-4.986-2.876-8.552-7.525-10.043-13.085 c-1.49-5.56-0.724-11.369,2.156-16.353c3.838-6.65,10.995-10.781,18.68-10.781c3.764,0,7.484,1,10.758,2.89 c7.126,4.116,11.228,12.025,10.724,20.072l40.319,23.278v-46.552c-7.222-3.587-12.021-11.096-12.021-19.327 c0-11.884,9.669-21.551,21.553-21.551c11.884,0,21.553,9.667,21.553,21.551c0,8.231-4.799,15.74-12.021,19.327v46.552l40.32-23.278 c-0.504-8.047,3.598-15.956,10.724-20.072c3.275-1.889,6.994-2.89,10.758-2.89c7.684,0,14.842,4.132,18.682,10.781 c2.878,4.984,3.644,10.792,2.154,16.353c-1.49,5.56-5.057,10.209-10.043,13.088c-3.272,1.889-6.989,2.887-10.752,2.887 c-4.32,0-8.472-1.272-11.998-3.63l-40.31,23.272L315.377,296.385z"/> </g> </g>
</svg>