<?xml version="1.0" encoding="utf-8"?>
<!-- Generator: Adobe Illustrator 26.0.0, SVG Export Plug-In . SVG Version: 6.00 Build 0)  -->
<svg version="1.1" id="레이어_1" xmlns="http://www.w3.org/2000/svg" xmlns:xlink="http://www.w3.org/1999/xlink" x="0px"
	 y="0px" viewBox="0 0 1000 1000" style="enable-background:new 0 0 1000 1000;" xml:space="preserve">
<style type="text/css">
	.st0{fill:#E54242;}
	.st1{fill:#FFFFFF;}
</style>
<circle class="st0" cx="500" cy="500" r="500"/>
<g>
	<path class="st1" d="M358.7,291.5l-57.2,357.4H199V291.5h-65.5v417h158.4h14.9h45.3l11.3-75.7h80.4l11.3,75.7h66.1l-66.7-417H358.7
		z M371.8,576.2l31-210.9h1.2l31,210.9H371.8z"/>
	<path class="st1" d="M703,291.5V344c-12.8-36.9-42.8-57.3-89.3-57.3c-63.7,0-96.5,38.1-96.5,104.8c0,47.7,17.3,82.2,72.1,130.5
		c42.9,37.5,56,60.2,56,90.5c0,29.8-13.1,40.5-34,40.5s-34-10.7-34-40.5v-29.8h-62v25.6c0,66.7,33.4,104.8,97.7,104.8
		s97.7-38.1,97.7-104.8c0-47.7-17.3-82.2-72.1-130.5c-42.9-37.5-56-60.2-56-90.5c0-29.8,11.9-41.1,32.8-41.1s32.8,11.3,32.8,41.1
		v17.3h62v-13.1c0-15-1.7-28.5-5-40.5h66.3v357.4H837V351.1h68.5v-59.6H703z"/>
</g>
</svg>
