<?xml version="1.0" encoding="utf-8"?>
<!-- Generator: Adobe Illustrator 26.0.0, SVG Export Plug-In . SVG Version: 6.00 Build 0)  -->
<svg version="1.1" id="레이어_1" xmlns="http://www.w3.org/2000/svg" xmlns:xlink="http://www.w3.org/1999/xlink" x="0px"
	 y="0px" viewBox="0 0 1000 1000" style="enable-background:new 0 0 1000 1000;" xml:space="preserve">
<style type="text/css">
	.st0{fill:#E54242;}
	.st1{fill:#FFFFFF;}
</style>
<circle class="st0" cx="500" cy="500" r="500"/>
<g>
	<path class="st1" d="M-1215.4,43.6h411.3c-0.9,40.8-2.7,78.5-5.4,113.2c-2.7,34.7-5.8,66.6-9.4,95.8h108.2v69.9h-588.7v-69.9h395.8
		c4-27.3,7.2-52.5,9.4-75.6c2.2-23.1,3.6-44,4-62.8h-325.3V43.6z M-1208.7,637V366.2h82v67.2h241.9v-67.2h82.7V637H-1208.7z
		 M-884.1,502h-243.3v65.9h243.3V502z"/>
</g>
<g>
	<path class="st1" d="M213.5-373.6c16.5-7.6,28.9-18.2,37-31.8c8.2-13.6,12.2-29.6,12.2-48c0-18.5-4.1-34.8-12.3-48.8
		c-8.2-14-20.5-24.9-36.9-32.5c-16.4-7.7-36.6-11.5-60.6-11.5H40.2v295.5h48.1v-111.4h64.4c1,0,2.1,0,3.1,0l63.9,111.4h54.8
		L204.8-370C207.8-371.1,210.7-372.3,213.5-373.6z M88.3-507.6h59.6c15.1,0,27.7,2.1,37.7,6.3c10,4.2,17.2,10.4,21.7,18.6
		c4.5,8.2,6.8,18,7,29.4c-0.1,11.3-2.5,20.8-7,28.5c-4.5,7.7-11.7,13.6-21.5,17.6c-9.8,4.1-22.4,6.1-37.7,6.1H88.3V-507.6z"/>
	<path class="st1" d="M407-468.8c-13.9-4.3-28.5-6.4-43.8-6.4c-18.2,0-34.4,2.7-48.5,8.1c-14.1,5.4-25.4,12.9-33.7,22.4
		c-8.4,9.6-13.3,20.5-14.7,32.7h46.7c2.3-8.6,7.7-15.4,16.1-20.5c8.4-5.1,19.3-7.7,32.7-7.7c10.5,0,19.4,1.5,26.6,4.6
		c7.3,3.1,12.7,7.5,16.3,13.5c3.6,5.9,5.4,13.1,5.4,21.5l0.1,17.8c-4.5,0.1-8.9,0.2-13.4,0.3c-8.3,0.4-16.8,0.9-25.6,1.3
		c-8.7,0.5-16.6,1-23.6,1.5c-25.9,1.6-47.2,7.3-63.8,17.1c-16.6,9.8-24.9,26.2-24.9,49.2c0,14,3.5,26.1,10.5,36.2
		c7,10.1,16.5,17.8,28.6,23.1c12.1,5.2,25.8,7.9,41.1,8.1c18.1-0.1,33-3.6,44.8-10.4c11.8-6.8,20.3-15.1,25.6-24.9h1.7v30.4h45.2
		v-147.1c0-20-4.7-35.7-14.2-47.2C432.5-456.6,420.9-464.5,407-468.8z M402.7-305.8c-5,7.6-12,13.7-21.2,18.3
		c-9.2,4.6-19.9,6.8-32.1,6.8c-8.9,0.1-16.6-1-23.3-3.5c-6.6-2.4-11.9-6.1-15.8-10.9c-3.9-4.8-5.9-10.7-5.9-17.6
		c0.1-10.6,4.5-18.8,13.1-24.5c8.6-5.7,20.7-9.1,36.5-10.2c8.6-0.7,17.8-1.2,27.5-1.6c7-0.5,12.3-0.9,15.8-1.1
		c3-0.2,7.3-0.4,12.7-0.7l0.1,20.2C410.1-321.8,407.6-313.5,402.7-305.8z"/>
	<path class="st1" d="M639.5-461.6c-15.1-9-32.1-13.6-51.2-13.6c-12.8,0-23.6,1.8-32.3,5.5c-8.7,3.7-15.6,8-20.5,13.1
		c-5,5-9.5,10.8-13.8,17.3c-0.6,0.7-1.2,1.6-1.7,2.7h-3.9v-35.7h-45.2v304.8h46.5V-285h2.6l0.9,1.2c4.1,6.8,8.7,12.8,13.9,17.9
		c5.2,5.1,12.2,9.6,21.2,13.5c9,3.9,19.8,5.8,32.7,5.8c19.2,0,36.3-4.6,51.3-13.8c15-9.2,26.7-22.4,35.1-39.6
		c8.4-17.2,12.6-37.6,12.6-61.1c0-23.4-4.2-43.7-12.7-61C666.3-439.4,654.5-452.6,639.5-461.6z M633.5-321.5
		c-4.7,11.8-11.7,21-21.2,27.7c-9.5,6.7-20.8,10.1-34.1,10.1c-13,0-24.1-3.3-33.3-9.9c-9.2-6.6-16.3-15.7-21.2-27.3
		c-4.9-11.6-7.4-25.3-7.5-40.9c0.1-15.5,2.6-29,7.3-40.6c4.7-11.6,11.7-20.4,21-26.5c9.2-6.1,20.5-9.2,33.7-9.2
		c13.4,0,24.8,3.2,34.2,9.7c9.4,6.5,16.4,15.5,21.1,27c4.7,11.6,7,24.8,7,39.6C640.4-346.7,638.1-333.2,633.5-321.5z"/>
	<path class="st1" d="M740.7-545.2c-2.7-3.9-6.3-7.1-10.8-9.4c-4.5-2.3-9.4-3.5-14.6-3.5c-5.4,0-10.3,1.2-14.7,3.5
		c-4.4,2.3-8,5.4-10.6,9.4c-2.6,3.9-3.9,8.2-3.9,12.9c0,4.6,1.3,8.9,3.9,12.8c2.6,3.9,6.1,7,10.6,9.4c4.4,2.4,9.4,3.6,14.7,3.6
		c5.2,0,10.1-1.2,14.6-3.6c4.5-2.4,8.1-5.5,10.8-9.4c2.7-3.9,4-8.1,4-12.8C744.7-537,743.4-541.2,740.7-545.2z"/>
	<rect x="692.1" y="-472.3" class="st1" width="46.5" height="221.6"/>
	<path class="st1" d="M913-546.2v109.6h-2.4c-0.4-0.5-0.7-1-0.9-1.3c-0.1-0.3-0.4-0.8-0.9-1.3c-3.9-6.4-8.4-12.1-13.3-17.2
		c-5-5.1-11.9-9.5-20.8-13.2c-8.9-3.7-19.7-5.5-32.3-5.5c-19.2,0-36.4,4.5-51.4,13.6c-15.1,9-26.9,22.2-35.5,39.5
		c-8.6,17.3-12.9,37.6-12.9,61c0,23.5,4.3,43.9,12.8,61.1c8.5,17.2,20.3,30.4,35.3,39.6c15,9.2,32.1,13.8,51.3,13.8
		c12.8,0,23.7-1.9,32.5-5.6c8.9-3.7,15.8-8.2,20.9-13.3c5-5.1,9.6-11,13.9-17.6l1.3-1.8h3.5v34.3h45.7v-295.5H913z M907.1-320.8
		c-4.8,11.6-11.9,20.7-21.2,27.3c-9.3,6.6-20.5,9.9-33.6,9.9c-13.3,0-24.5-3.4-33.9-10.1c-9.3-6.7-16.4-16-21.2-27.7
		c-4.8-11.8-7.2-25.2-7.2-40.3c0-14.8,2.4-28,7.1-39.6c4.7-11.6,11.8-20.6,21.1-27c9.3-6.5,20.7-9.7,34.1-9.7
		c13.2,0,24.5,3.1,33.7,9.2c9.2,6.1,16.3,15,21.1,26.6c4.8,11.6,7.2,25.1,7.2,40.5C914.3-346.1,911.9-332.5,907.1-320.8z"/>
</g>
<g>
	<path class="st1" d="M-656.6-731.2H-937v-275.3h280.4V-731.2z M-574.2-439.3v-159.1H-877v-65.2h381.3v224.2H-574.2z M-734.5-795.7
		v-146.9h-124.6v146.9H-734.5z M-406.9-841.1h-88.8v152.7h-78.6v-344.3h78.6v125.2h88.8V-841.1z"/>
</g>
<g>
	<path class="st1" d="M358.7,291.5l-57.2,357.4H199V291.5h-65.5v417h158.4h14.9h45.3l11.3-75.7h80.4l11.3,75.7h66.1l-66.7-417H358.7
		z M371.8,576.2l31-210.9h1.2l31,210.9H371.8z"/>
	<path class="st1" d="M703,291.5V344c-12.8-36.9-42.8-57.3-89.3-57.3c-63.7,0-96.5,38.1-96.5,104.8c0,47.7,17.3,82.2,72.1,130.5
		c42.9,37.5,56,60.2,56,90.5c0,29.8-13.1,40.5-34,40.5s-34-10.7-34-40.5v-29.8h-62v25.6c0,66.7,33.4,104.8,97.7,104.8
		c64.3,0,97.7-38.1,97.7-104.8c0-47.7-17.3-82.2-72.1-130.5c-42.9-37.5-56-60.2-56-90.5c0-29.8,11.9-41.1,32.8-41.1
		s32.8,11.3,32.8,41.1v17.3h62v-13.1c0-15-1.7-28.5-5-40.5h66.3v357.4H837V351.1h68.5v-59.6H703z"/>
</g>
<g>
	<path class="st1" d="M197-1278.9c-3.2-9.5-5.3-15.3-5.3-45.3v-58c0-34.3-11.6-46.9-37.9-46.9h-20v150.2h-58v-368.9h87.5
		c60.1,0,85.9,27.9,85.9,84.8v29c0,37.9-12.1,62.2-37.9,74.3v1.1c29,12.1,38.5,39.5,38.5,78v56.9c0,17.9,0.5,31.1,6.3,44.8H197z
		 M133.7-1595.1v113.3h22.7c21.6,0,34.8-9.5,34.8-39v-36.4c0-26.3-9-37.9-29.5-37.9H133.7z"/>
	<path class="st1" d="M461.5-1278.9H403l-10-66.9h-71.1l-10,66.9h-53.2l59-368.9h84.8L461.5-1278.9z M329.3-1395.9h55.9l-27.4-186.6
		h-1.1L329.3-1395.9z"/>
	<path class="st1" d="M646.5-1556.6v48c0,59-28.5,91.2-86.4,91.2h-27.4v138.6h-58v-368.9h85.4C618-1647.8,646.5-1615.7,646.5-1556.6
		z M532.7-1595.1v124.9h27.4c18.4,0,28.5-8.4,28.5-34.8v-55.3c0-26.3-10-34.8-28.5-34.8H532.7z"/>
	<path class="st1" d="M666.8-1647.8h58v368.9h-58V-1647.8z"/>
	<path class="st1" d="M746.1-1647.8h91.7c58,0,86.4,32.1,86.4,91.2v186.6c0,59-28.5,91.2-86.4,91.2h-91.7V-1647.8z M804.1-1595.1
		v263.5h32.7c18.4,0,29.5-9.5,29.5-35.8v-191.8c0-26.3-11.1-35.8-29.5-35.8H804.1z"/>
</g>
</svg>
