<svg id="레이어_1" data-name="레이어 1" xmlns="http://www.w3.org/2000/svg" viewBox="0 0 1000 1000"><defs><style>.cls-1{fill:#e54242;}.cls-2{fill:#fff;}</style></defs><circle class="cls-1" cx="500" cy="500" r="500"/><path class="cls-2" d="M216.55,462.18H320.37v68.76H216.55v141H347.19v68.76H140.91V259.34H347.19V328.1H216.55Z"/><path class="cls-2" d="M617.42,259.34,538.34,493.13l84.58,247.53H543.16L482,550.19h-1.38L418.7,740.66H347.88l84.57-247.53L353.38,259.34h78.38l56.39,177.4h1.37l57.76-177.4Z"/><path class="cls-2" d="M856,378.3v62.57c0,77-37.13,119-112.77,119H707.49V740.66H631.85V259.34H743.24C818.88,259.34,856,301.28,856,378.3ZM707.49,328.1v163h35.75c24.07,0,37.13-11,37.13-45.38v-72.2c0-34.38-13.06-45.38-37.13-45.38Z"/><path class="cls-2" d="M883,666.91v72.88H810.11V666.91Z"/></svg>