<?xml version="1.0" standalone="no"?>
<!DOCTYPE svg PUBLIC "-//W3C//DTD SVG 20010904//EN"
 "http://www.w3.org/TR/2001/REC-SVG-20010904/DTD/svg10.dtd">
<svg version="1.0" xmlns="http://www.w3.org/2000/svg"
 width="1083.000000pt" height="1083.000000pt" viewBox="0 0 1083.000000 1083.000000"
 preserveAspectRatio="xMidYMid meet">
<metadata>
Created by potrace 1.14, written by Peter Selinger 2001-2017
</metadata>
<g transform="translate(0.000000,1083.000000) scale(0.100000,-0.100000)"
fill="#000000" stroke="none">
<path d="M3100 9431 c-114 -35 -170 -126 -170 -276 l0 -54 -57 -11 c-174 -36
-368 -118 -524 -221 -125 -83 -315 -273 -398 -398 -155 -234 -236 -483 -248
-766 -24 -582 299 -1125 822 -1380 105 -51 242 -99 338 -117 l67 -13 0 -2062
0 -2063 -264 0 c-289 0 -315 -4 -386 -60 -21 -17 -50 -54 -64 -82 -25 -51 -26
-57 -26 -248 0 -178 2 -198 18 -213 17 -16 95 -17 923 -17 767 0 908 2 925 14
18 13 19 28 19 213 l0 198 -30 55 c-33 60 -96 114 -153 130 -20 5 -140 10
-269 10 l-233 0 0 2059 0 2060 58 11 c79 16 187 46 252 71 94 35 264 128 339
185 40 30 74 54 75 54 2 0 6 -35 9 -77 8 -94 38 -213 76 -296 l27 -62 -47 -60
c-131 -167 -199 -363 -199 -574 0 -162 28 -285 93 -416 43 -88 82 -141 161
-223 86 -89 145 -134 249 -188 l79 -41 3 -124 c3 -147 18 -210 79 -334 106
-214 289 -360 521 -416 125 -30 313 -24 428 14 74 24 78 24 60 5 -10 -11 -36
-29 -58 -40 -149 -76 -299 -219 -363 -346 -156 -313 -41 -591 266 -644 l70
-12 4 -130 c3 -111 7 -137 25 -172 40 -76 139 -144 208 -144 13 0 16 -5 11
-23 -4 -12 -9 -76 -12 -142 l-6 -120 -43 -41 c-39 -37 -51 -42 -107 -48 -99
-10 -271 -52 -332 -81 -80 -38 -89 -85 -24 -125 247 -152 1509 -197 2133 -75
192 37 279 73 291 121 16 62 -102 112 -358 154 -95 15 -112 21 -147 51 -34 30
-39 40 -40 79 -1 25 -4 68 -7 97 l-7 52 39 6 c87 14 133 27 186 54 82 42 132
86 184 162 45 65 47 67 112 83 115 28 215 112 261 218 71 166 49 416 -55 623
-52 103 -68 118 -124 110 -46 -6 -47 -6 -75 35 -47 69 -166 172 -264 229 -117
70 -130 85 -49 59 87 -28 295 -36 395 -15 158 34 273 98 393 217 161 161 229
328 230 560 l0 105 58 27 c240 114 428 333 509 595 25 81 27 102 27 258 0 157
-2 177 -28 260 -34 110 -89 217 -161 313 l-55 73 29 72 c48 122 65 217 65 362
-1 148 -19 244 -68 377 -158 422 -591 719 -1046 718 -71 0 -194 -14 -232 -26
-12 -3 -18 0 -18 10 0 32 -62 147 -117 217 -137 175 -379 308 -648 356 -133
24 -353 21 -482 -6 -225 -47 -395 -131 -542 -267 -69 -64 -150 -179 -176 -251
-10 -26 -21 -51 -24 -54 -3 -4 -40 -1 -81 7 -208 37 -449 -1 -660 -104 -52
-25 -97 -47 -100 -49 -3 -2 -2 36 1 84 44 674 -365 1284 -1005 1498 -56 19
-133 40 -173 46 l-71 13 -4 85 c-5 100 -27 152 -84 199 -54 44 -139 62 -204
43z m3465 -7298 c40 -54 121 -210 113 -218 -3 -3 -94 -4 -202 -3 l-197 3 39
80 c22 44 57 104 78 132 37 51 41 53 86 53 45 0 50 -2 83 -47z"/>
</g>
</svg>
