<svg version="1" xmlns="http://www.w3.org/2000/svg" width="1444" height="1444" viewBox="0 0 1083.000000 1083.000000"><path d="M310 139.9c-11.4 3.5-17 12.6-17 27.6v5.4l-5.7 1.1c-17.4 3.6-36.8 11.8-52.4 22.1-12.5 8.3-31.5 27.3-39.8 39.8-15.5 23.4-23.6 48.3-24.8 76.6-2.4 58.2 29.9 112.5 82.2 138 10.5 5.1 24.2 9.9 33.8 11.7l6.7 1.3V876h-26.4c-28.9 0-31.5.4-38.6 6-2.1 1.7-5 5.4-6.4 8.2-2.5 5.1-2.6 5.7-2.6 24.8 0 17.8.2 19.8 1.8 21.3 1.7 1.6 9.5 1.7 92.3 1.7 76.7 0 90.8-.2 92.5-1.4 1.8-1.3 1.9-2.8 1.9-21.3v-19.8l-3-5.5c-3.3-6-9.6-11.4-15.3-13-2-.5-14-1-26.9-1H339V464.1l5.8-1.1c7.9-1.6 18.7-4.6 25.2-7.1 9.4-3.5 26.4-12.8 33.9-18.5 4-3 7.4-5.4 7.5-5.4.2 0 .6 3.5.9 7.7.8 9.4 3.8 21.3 7.6 29.6l2.7 6.2-4.7 6c-13.1 16.7-19.9 36.3-19.9 57.4 0 16.2 2.8 28.5 9.3 41.6 4.3 8.8 8.2 14.1 16.1 22.3 8.6 8.9 14.5 13.4 24.9 18.8l7.9 4.1.3 12.4c.3 14.7 1.8 21 7.9 33.4 10.6 21.4 28.9 36 52.1 41.6 12.5 3 31.3 2.4 42.8-1.4 7.4-2.4 7.8-2.4 6-.5-1 1.1-3.6 2.9-5.8 4-14.9 7.6-29.9 21.9-36.3 34.6-15.6 31.3-4.1 59.1 26.6 64.4l7 1.2.4 13c.3 11.1.7 13.7 2.5 17.2 4 7.6 13.9 14.4 20.8 14.4 1.3 0 1.6.5 1.1 2.3-.4 1.2-.9 7.6-1.2 14.2l-.6 12-4.3 4.1c-3.9 3.7-5.1 4.2-10.7 4.8-9.9 1-27.1 5.2-33.2 8.1-8 3.8-8.9 8.5-2.4 12.5 24.7 15.2 150.9 19.7 213.3 7.5 19.2-3.7 27.9-7.3 29.1-12.1 1.6-6.2-10.2-11.2-35.8-15.4-9.5-1.5-11.2-2.1-14.7-5.1-3.4-3-3.9-4-4-7.9-.1-2.5-.4-6.8-.7-9.7l-.7-5.2 3.9-.6c8.7-1.4 13.3-2.7 18.6-5.4 8.2-4.2 13.2-8.6 18.4-16.2 4.5-6.5 4.7-6.7 11.2-8.3 11.5-2.8 21.5-11.2 26.1-21.8 7.1-16.6 4.9-41.6-5.5-62.3-5.2-10.3-6.8-11.8-12.4-11-4.6.6-4.7.6-7.5-3.5-4.7-6.9-16.6-17.2-26.4-22.9-11.7-7-13-8.5-4.9-5.9 8.7 2.8 29.5 3.6 39.5 1.5 15.8-3.4 27.3-9.8 39.3-21.7 16.1-16.1 22.9-32.8 23-56v-10.5l5.8-2.7c24-11.4 42.8-33.3 50.9-59.5 2.5-8.1 2.7-10.2 2.7-25.8 0-15.7-.2-17.7-2.8-26-3.4-11-8.9-21.7-16.1-31.3l-5.5-7.3 2.9-7.2c4.8-12.2 6.5-21.7 6.5-36.2-.1-14.8-1.9-24.4-6.8-37.7-15.8-42.2-59.1-71.9-104.6-71.8-7.1 0-19.4 1.4-23.2 2.6-1.2.3-1.8 0-1.8-1 0-3.2-6.2-14.7-11.7-21.7-13.7-17.5-37.9-30.8-64.8-35.6-13.3-2.4-35.3-2.1-48.2.6-22.5 4.7-39.5 13.1-54.2 26.7-6.9 6.4-15 17.9-17.6 25.1-1 2.6-2.1 5.1-2.4 5.4-.3.4-4 .1-8.1-.7-20.8-3.7-44.9.1-66 10.4-5.2 2.5-9.7 4.7-10 4.9-.3.2-.2-3.6.1-8.4 4.4-67.4-36.5-128.4-100.5-149.8-5.6-1.9-13.3-4-17.3-4.6l-7.1-1.3-.4-8.5c-.5-10-2.7-15.2-8.4-19.9-5.4-4.4-13.9-6.2-20.4-4.3zm31.9 44.6c49.3 9.5 88.8 44.2 104.6 91.8 5.3 15.9 6.9 28 6.2 47.1-.4 12.6-1.1 18.3-3.1 26.2-8.4 33.6-28.6 62.6-56.8 81.4-14.8 9.9-26.9 15.3-44.2 19.6-14 3.5-37.8 4.4-52.7 2-48.1-7.9-88.7-41.2-105.8-86.6-11.6-30.9-11.8-62.8-.5-94.2 17.1-47.4 61.2-82.4 112-88.8 9.6-1.2 30.2-.4 40.3 1.5zm205.6 190.1c8.4 2 21 8.4 27.3 14 2.9 2.6 7.8 7.8 10.8 11.5 3.4 4.3 6.2 6.9 7.4 6.9 1.8 0 2 .7 2 7.4 0 21.1 8.1 40.9 22.5 55.1 14.6 14.3 33.9 22.4 61.7 26.1 17.4 2.2 19.4.3 13.4-12.5-4.6-10-6.6-17.6-7.3-28.8-.9-14.5 2.3-29.6 9.1-43.1l2.7-5.3 4.3.6c4.2.7 4.5.5 7.2-3.2 1.6-2.1 6.3-7.2 10.4-11.4 12.4-12.5 28-19 46-19.1 20.4 0 39.6 9 51.8 24.5 6.2 8 8.4 11.9 11.8 20.9 3.5 9.6 4.4 26.7 2 37.3-3.3 14.1-12.5 28.6-23.6 37.2-6.9 5.3-7.2 6.5-4 15.9 11.9 34.5 7.9 83.7-9.6 118.6-22 43.9-61.8 70.6-116.3 78.2-14.4 2-43.1 2.1-57.1.1-37.2-5.3-67.1-19.1-90-41.5-26.5-26-40.9-60.9-42.7-103.6-.7-16.7.6-29.1 4.9-45.4 4.5-17.3 4.5-16.4.6-19.6-1.8-1.6-6-5.6-9.3-9-25.8-26.3-25.1-68.3 1.5-94.4 17.1-16.7 39.3-22.9 62.5-17.4zm102.4 346.1c-.7 1-1.4 2-1.5 2.1-.1.2-.7-.6-1.4-1.7-1-1.9-.8-2.1 1.6-2.1 2.4 0 2.5.2 1.3 1.7zm-84.8 13.1c-.9.7-4 2.5-6.9 3.9-6.9 3.3-14.3 10.7-17.8 18-2.5 5.2-2.8 6.9-2.9 15.8 0 8.9.3 10.7 2.8 16 1.5 3.3 4.9 8.1 7.5 10.7 2.5 2.7 4.3 4.8 3.9 4.8-2.7 0-12.7-4.9-16-7.9-5.5-4.9-7.7-10.1-7.7-18.2 0-18.5 12.3-37.1 32.1-48.4l4.4-2.4 1.1 3.2c1 2.7.9 3.4-.5 4.5zm172.9-2.9c0 4.8-1.2 5.2-4 1.4-1.5-2.1-2.5-4.4-2.3-5 .7-1.9 6.3 1.3 6.3 3.6zm7.9 2c2 1.5 2.1 1.9.7 2.4-2.1.8-2.1 3.5.1 5.9 2.1 2.3 3.8 2.3 5.5-.1 1.3-1.8 1.5-1.7 4.6 2 1.8 2.1 3 4.4 2.7 4.9-1.1 1.9-7.4 1.1-8.7-1-.7-1.1-3.2-3.4-5.5-5.2-4.2-3.1-5.1-5.4-3.7-9.2.8-2 1.3-2 4.3.3zm-157 10.1c7.8 3.9 14.1 14.3 14.1 23.1 0 8.3-5.7 17.5-12.7 20.5-12.8 5.5-28.3-7.6-28.3-23.9 0-16.2 13.9-26.4 26.9-19.7zm137.8 1.6c5.7 4.7 7.8 9.6 7.8 18.4-.1 8.8-2.1 13.6-8.3 19.2-9.8 8.8-22.4 7.1-29-4-2.3-4-2.7-5.8-2.7-12.2 0-8.5 2-13.3 7.7-18.6 5.4-5.2 8.6-6.5 15-6.1 4.6.3 6.5.9 9.5 3.3zm-88.1 4c.8 3.2-1.2 5.4-4.8 5.4-3.2 0-4.3-1.8-3.4-5.4 1-4.2 7.2-4.1 8.2 0zm37.2 2.6c.7.7 1.2 2.5 1.2 4 0 2.1.5 2.8 1.9 2.8 1.5 0 2.1-.8 2.3-3.1.3-2.9 3-6 4.2-4.8.3.2-.2 2.9-1.1 5.8-1 3.4-1.4 7.9-1.1 12.7.2 4.8 0 7.3-.7 7.1-.5-.2-1.1-2.2-1.3-4.5-.3-3.4-.7-4.2-2.3-4.2-1.6 0-1.9.7-1.9 4 0 4.8-2.7 6.9-6.6 5.1-2.3-1-2.4-1.4-2.4-12.4 0-11.9.6-13.7 4.5-13.7 1.2 0 2.6.5 3.3 1.2zm89.6 8.4c3.4 8 4.6 19.9 2.7 25.7-1.8 5.3-8.3 12.1-13.8 14.4-9.9 4.2-10.3 4.1-5-1.6 2.7-2.8 6-7.7 7.5-10.9 2.3-4.9 2.7-7 2.7-15.2 0-7.7-.4-10.4-2.2-14.2l-2.1-4.7 2.6-.4c4.3-.6 4.6-.4 7.6 6.9zm-126.8 12.1c.9 3.2-2.4 6.4-5.7 5.6-2.5-.7-3.3-2.5-2.5-5.8.5-2.1 1.2-2.5 4.1-2.5 2.9 0 3.6.4 4.1 2.7zm-.6 21.8c1.7 2 .5 6.2-2 7-4.2 1.3-7.1-2.4-5.4-6.9.8-2 5.7-2.1 7.4-.1zM753.1 816c2.4 1.4 2.5 5.1 0 12.1-4.2 12.3-9.8 19.8-18.2 24.4l-5.4 2.9 3.8-4.4c2.3-2.8 4.3-6.5 5.3-10 .8-3 2.6-8 3.9-11 1.4-3 2.9-7.4 3.5-9.7 1.3-5.1 3.3-6.3 7.1-4.3zM606 836.5c17.6 2.8 40.4 3.8 58.9 2.6 15.1-1.1 31.1-3.1 38-4.8l2.4-.6-2.8 5.2-2.9 5.2 2.3 11.7c1.4 6.7 2.6 17.6 3 25.5l.6 13.9 4.8 4c2.6 2.2 4.7 4.9 4.7 5.9 0 3.9-9.1 5-20.5 2.5-10.7-2.3-11.3-2.9-14.4-15.3-1.9-7.8-7.2-19.8-11.2-25.5-2.1-2.9-2.4-2.7 4.4-4.2 4.8-1.1 5.6-7.3 1.2-10.2-1.7-1.1-3.2-1.3-6.6-.5-8.4 1.8-20.5 2.2-30.4 1-5.5-.7-11.3-1.2-12.9-1.2-3.1 0-5.6 2.5-5.6 5.5 0 2.6 3.6 5.8 6.4 5.8 1.4 0 2.7.4 3 .9.3.5-1.1 3.8-3.2 7.3-5 8.2-7.7 14.9-9.2 22.3-1.9 9.3-3.2 11.2-9.3 13-2.8.9-8.8 1.8-13.2 2.2-7 .5-8.3.3-10.4-1.4-2.4-2-2.5-2.1-.8-4.7 1-1.4 2.1-2.6 2.6-2.6.4 0 2-1.1 3.5-2.5 2.4-2.2 2.6-3.1 2.6-10.2 0-9 2.1-25.5 4.5-36l1.6-7.2-2.5-4.4c-3.2-5.4-3.2-6.1-.3-5.4 1.2.4 6.5 1.3 11.7 2.2zm50.5 33.2c4 5.4 12.1 21 11.3 21.8-.3.3-9.4.4-20.2.3l-19.7-.3 3.9-8c2.2-4.4 5.7-10.4 7.8-13.2 3.7-5.1 4.1-5.3 8.6-5.3s5 .2 8.3 4.7z"/><path d="M301.5 204.6c-15 3.3-27.6 10.4-38.5 21.5-28.5 29.2-28.1 76.5.8 105.5 32.8 32.9 87.9 28.5 114.8-9.3 9.7-13.4 13.7-26.6 13.7-44.3-.1-21.6-6.5-37.2-21.8-52.5-9.8-9.9-18.7-15.3-32-19.5-9.3-2.9-27.1-3.6-37-1.4zm11.6 1.5c-20.4 2.2-35.5 9.2-48.2 22.6-9.2 9.5-16.7 24.1-18.4 35.5-.4 2.6-1.1 4.5-1.6 4.2-1.8-1.1 2.9-16.4 7.7-25 12.6-22.9 37.6-38.5 61.4-38.2l7.5.1-8.4.8zm1.6 11.1l1 5.3.2-5.3c.1-4 .5-5.2 1.6-5.2 1.3 0 1.5 1.1 1.3 6.2-.3 6.1-.4 6.3-3.2 6.6-3.7.5-4.6-1-4.6-7.6 0-3.7.4-5.2 1.4-5.2.8 0 1.7 2 2.3 5.2zm13.4-1.2c.5 2.7.7 2.9.8 1l.2-2.5 1.3 2.3c1.5 2.7.7 9.3-1.2 10-.6.2-1.6-.7-2.1-2-.8-2-1-2.1-1.6-.6-.7 1.7-3.5 2.6-3.5 1.1 0-.3.5-3.5 1.1-7 .9-5.1 1.5-6.3 2.8-6.1.9.2 1.8 1.7 2.2 3.8zm-27.1-.5c0 .9-.7 1.8-1.5 2.1-.8.4-1.5 1.6-1.5 2.8.1 1.9.2 1.9 1.1.3 1.6-2.8 3.7-2 4.8 2 1.1 4.1.3 5.3-3.5 5.3-2.7 0-5.2-2.8-6-6.7-.5-2.4-.1-3.6 1.5-5.2 2.5-2.5 5.1-2.8 5.1-.6zm-9.1 8c1.7 3 3.1 5.9 3.1 6.5 0 1.3-3.3 1.3-4.6 0-.7-.7-1-.4-1 1.1.2 4-1.9 3-4.6-2.4-3.6-6.7-3.6-8.1-.2-7.3 1.8.5 2.4.3 1.9-.5-.6-.8.9-2.8 2.2-2.9 0 0 1.5 2.5 3.2 5.5zm-9.5 7.8c4 3.4 4.3 6.4.5 5.2-1.4-.5-1.7-.2-1.3.8.2.7-.1 1.9-.8 2.5-2 1.6-8.5-10.2-6.8-12.3 1.4-1.7 2.7-1.1 8.4 3.8zm49.9.5c2.6 1.1 2.7 1.4 2.7 8.9 0 4.3-.5 9.5-1.1 11.5l-1 3.8H323c-6 0-10-.4-10-1s-2.8-1-6.5-1-6.5.4-6.5 1-3.7 1-9 1h-9v5.2c0 2.9-.3 8.2-.6 11.8-.5 5.7-.3 6.9 1.8 10 1.3 1.9 3.9 4.3 5.8 5.2l3.5 1.8H286c-3.6 0-8.7-.6-11.5-1.3l-5-1.3v-11c0-10.5.1-11.2 3.7-18.7 6.2-12.8 17.4-22.4 30.8-26.3 5.3-1.6 24.1-1.3 28.3.4zm-56.9 7.8c4.3 5.2 2.2 6.2-5 2.4-6-3.2-7.6-5.6-3.7-5.4 1.6 0 2-.3 1.3-1.1-.6-.7-.5-1.6.3-2.4.9-1 1.5-.8 2.7.9.8 1.2 2.8 3.7 4.4 5.6zm-7.4 5.3c5.3 3.2 6 5.7 1.5 5.4-2.8-.1-2.9-.1-.7.9 2.4 1.2 2.8 2.3 1.1 3.4-1.7 1-12-4.8-11.6-6.6.2-1 1.2-1.4 3.2-1.2 2.7.2 2.8.1 1-.9-2.8-1.6-2.8-1.6-2-2.8.9-1.6 2.5-1.2 7.5 1.8zm-2.7 11.7c3.3.7 3.7 3.4.5 3.4-2 .1-2.1.2-.8 1.3.9.7 1.4 2 1.2 3-.3 1.6-.8 1.6-5-.9-6.2-3.5-7.6-4.9-6.8-6.9.6-1.6 1.5-1.6 10.9.1zm45.7.1c0 1.2-.3 1.4-.8.6-.4-.6-2.5-1.3-4.7-1.6-4-.4-4-.4.8-.5 3.9-.2 4.7.1 4.7 1.5zm-27.3 7.5c-.2 1.3-.4.3-.4-2.2s.2-3.5.4-2.3c.2 1.3.2 3.3 0 4.5zm20.3-.7c0 .8.7 1.5 1.5 1.5s1.5-.7 1.5-1.5.9-1.5 2-1.5c1.5 0 2 .7 2 2.5 0 1.6.6 2.5 1.5 2.5.8 0 1.5.7 1.5 1.5s-.7 1.5-1.5 1.5c-.9 0-1.5.9-1.5 2.3 0 2.3-1.7 4.7-3.2 4.7-.4 0-.8-1.5-.8-3.3-.1-2.6-.2-2.9-1.1-1.5-1.1 1.9-6.4 2.4-8.8.9-1.9-1.2-2.4-8.1-.5-8.1.8 0 1.4-.7 1.4-1.5 0-1 1-1.5 3-1.5s3 .5 3 1.5zm-43.7 3c5.3.7 6.5 3.1 2 3.8-2.7.4-2.7.4-.5 1.2 2.7.9 3 3.5.3 3.5-1 0-3.9-.3-6.5-.6-3.6-.5-4.6-1.1-4.6-2.6s.5-1.7 2.5-1.2c1.5.4 2.5.2 2.5-.5 0-.6-1.1-1.1-2.5-1.1-2.7 0-2.8-.1-1.9-2.3.3-.8 1.3-1.3 2.2-1.1.9.1 3.8.6 6.5.9zm23.9 5.2c-.3 1.6-.7 2.2-1 1.5-.4-1.3.4-4.2 1.1-4.2.2 0 .2 1.2-.1 2.7zm17.6 6c-.2 1.7-1 2.9-2 3.1-1.4.3-1.8-.3-1.8-2.7 0-2.5.4-3.1 2.1-3.1 1.6 0 2 .5 1.7 2.7zm-18.1 1.5c-.3.8-.6.5-.6-.6-.1-1.1.2-1.7.5-1.3.3.3.4 1.2.1 1.9zm6.6 7.7c-.2.3-1.8-1-3.6-2.9l-3.2-3.4 3.6 3c2 1.6 3.4 3.1 3.2 3.3zm75.6 3.3c-2.5 11.3-11 23.3-21.3 30-5.6 3.6-18.3 8.4-19.4 7.3-.5-.5-.3-.6 6.3-2.6 15.2-4.6 27.9-17.3 32.5-32.4 1.8-6.3 1.9-6.5 2.4-6.5.2 0 0 1.9-.5 4.2zm-66.1-2.5c-1.6.2-4 .2-5.5 0-1.6-.2-.3-.4 2.7-.4s4.3.2 2.8.4z"/><path d="M299.5 224c.3.5.8 1 1.1 1 .2 0 .4-.5.4-1 0-.6-.5-1-1.1-1-.5 0-.7.4-.4 1zM299.4 269.1c-1 1.7 1.3 3.6 2.7 2.2 1.2-1.2.4-3.3-1.1-3.3-.5 0-1.2.5-1.6 1.1zM357.3 364.1c-5.2 1.5-10.1 7.1-10.8 12.2-1.2 8.1 3.3 14.2 13.5 18.1 6.4 2.5 9 4.4 9 6.5 0 3.9-7.4 4.2-13.5.7l-4.2-2.5-3.8 4.6c-3.7 4.4-3.8 4.6-1.9 6.1 7.7 5.9 21.5 7.6 28.4 3.6 5.4-3.1 8-7.7 8-14.2 0-7.9-2.7-11-12.9-15.2-10-4-11.5-5.5-8.2-8.2 2.7-2.1 6.5-1.8 11.3 1 2.6 1.5 2.9 1.5 4.3-.3 5.5-7 5.5-7.4-.7-10.6-4.7-2.4-13.8-3.3-18.5-1.8zM252 389.5v25.7l13.8-.4c14.8-.4 18.2-1.4 22.1-6.4 4.5-5.7 3.6-15.8-1.8-19-2.7-1.6-2.8-1.7-1-3.5 2.2-2.2 3.9-8.1 3.2-11.1-1.8-8.5-5.3-10.1-22.5-10.6l-13.8-.4v25.7zm21.8-13.9c4.5 3.1 1.1 8.4-5.5 8.4-3.3 0-3.3 0-3.3-5s0-5 3.3-5c1.8 0 4.3.7 5.5 1.6zm2.3 19.4c2.3 1.3 2.6 6.2.5 7.9-.8.6-3.7 1.4-6.5 1.8l-5.1.6V394h4.6c2.5 0 5.4.5 6.5 1zM298.2 383.2c.3 18.4.4 19.5 2.8 23.7 3.5 6.2 8.5 8.6 17.5 8.6 8.8-.1 13-2.3 16.5-8.6 2.4-4.2 2.5-5.3 2.8-23.7l.4-19.2H326v16.2c0 19.5-1.1 23.1-7 23.6-7.5.6-8.9-3.4-9-25.6V364h-12.2l.4 19.2zM517.8 395.9c-12.4 4.1-22.5 13-28.1 24.8-3.1 6.5-3.2 7.3-3.2 19.4 0 12.4 0 12.6 3.7 20 3.4 6.7 10.8 15.8 14.9 17.9 1.2.7 2.7-.9 7.2-7.8 11.7-18.1 29.1-35 49-47.5 5-3.2 9.3-6.1 9.5-6.6.5-1.4-6.8-9.7-11.3-13-8.8-6.3-15-8.4-26-8.8-7.8-.2-11.3.1-15.7 1.6zM750.8 395.9c-3.2 1-8 3.3-10.8 5.1-5.3 3.4-14 12.6-14 14.7 0 .7 3.1 3 7 5.3 20.4 11.9 41.4 32.3 53.5 51.9 3.4 5.4 4 5.9 5.8 5 4.2-2.3 10.8-10.3 14.4-17.7 3.8-7.6 3.8-7.6 3.8-20.1 0-12.1-.1-12.9-3.2-19.4-4.5-9.4-12.7-17.8-22-22.4-6.9-3.4-8.1-3.7-18.1-4-8.5-.2-11.9.1-16.4 1.6zM570.3 490.5c-4.5 1.9-7.3 5.1-7.3 8.3 0 5.5 4.2 6.8 8.6 2.7 1.5-1.4 3.8-2.5 5.1-2.5 1.3 0 3.3 1.1 4.5 2.5 3.7 4.3 8.8 2.8 8.8-2.5 0-4.7-7.8-10.1-14.5-10-1.1.1-3.4.7-5.2 1.5zM714.4 490.4c-4.3 1.9-7.4 5.5-7.4 8.6 0 5.3 4.2 6.5 8.6 2.5 1.5-1.4 3.8-2.5 5.1-2.5 1.3 0 3.3 1.1 4.5 2.5 3.7 4.3 8.8 2.8 8.8-2.6 0-3.4-4.2-7.6-8.9-8.9-4.7-1.3-6.9-1.2-10.7.4zM569.9 541.3c-5.2 1.9-9.6 5.4-13 10-3.3 4.6-3.7 7.7-1.1 10 2.7 2.5 5.9 2.1 8.5-1 9-10.8 13.5-11.2 22.4-1.8 4.6 4.9 7.2 5.6 10.3 2.5 2.9-2.9 2.5-5.2-2.1-10.4-7.5-8.5-17.3-12.1-25-9.3zM710.9 543c-4.9 2.6-12.9 11.6-12.9 14.5 0 3.1 2.5 5.5 5.7 5.5 1.7 0 4.1-1.7 7.7-5.5 3.9-4.2 5.9-5.5 8-5.5 3.7 0 8.7 3.1 12 7.5 2 2.6 3.5 3.5 5.6 3.5 3.5 0 6-2.3 6-5.5 0-3.1-8-11.9-13.3-14.4-5.6-2.7-13.8-2.7-18.8-.1zM640.1 557.4c-1.8 2.1-1 4.9 1.7 6.1 2 .9 2.2 1.7 2.2 8.5 0 8.9-1.3 11.4-6.9 13.1-3.3 1-4.5.9-7.8-.7-3.1-1.5-4.2-2.9-5.8-7.2-2.1-5.6-5.2-7.6-8-5.2-5.2 4.3 2.9 19.3 11.6 21.5 2.3.6 2.6 1.3 3.7 8.8 2.5 17.4 9.7 34.1 15.5 36.1 4.5 1.6 7.7-.9 11.9-9.2 2-4.1 4.4-10.5 5.3-14.3 1-3.8 2.1-6.9 2.7-6.9.5 0 2.6-3.7 4.7-8.3 2.1-4.5 4.8-9.1 6.1-10.2 3.3-3 6-8.9 6-13.4 0-3.5-.4-4.1-2.5-4.7-3-.7-5.1.7-5.9 4.2-2.5 9.7-13.3 13.2-19.1 6.2-2.2-2.6-2.5-3.9-2.5-10.3 0-6.9.1-7.4 2.3-7.7 1.8-.2 2.2-.9 2.2-3.8v-3.5l-8.1-.3c-6.2-.2-8.4.1-9.3 1.2zm27.8 39.6c-1.3 3.6-2.2 3.8-3.7.6-1.2-2.6-.5-3.4 3-3.5 1.5-.1 1.5.3.7 2.9zM536.2 585.3c-3 3.2-2.9 8.7.1 11.5 2.2 2.1 3.3 2.2 18.3 2.2 15.5 0 16.1-.1 18.2-2.3 3-3.2 2.9-8.7-.1-11.5-2.2-2.1-3.3-2.2-18.3-2.2-15.5 0-16.1.1-18.2 2.3zM724 585c-2.8 2.8-2.7 9.3.2 12 2 1.8 3.5 2 18.3 2 15.6 0 16.2-.1 18.3-2.3 3-3.2 2.9-8.7-.1-11.5-2.2-2.1-3.3-2.2-18.5-2.2-14.9 0-16.4.2-18.2 2z"/></svg>