<svg xmlns="http://www.w3.org/2000/svg" width="1000" height="1000" viewBox="0 0 264.58333 264.58334"><circle cx="132.29166" cy="132.29167" r="132.11478" style="opacity:.993;fill:#fabe00;stroke:none;stroke-width:.353792;stroke-linecap:round;stroke-linejoin:round;fill-opacity:1"/><g style="font-style:normal;font-variant:normal;font-weight:900;font-stretch:normal;font-size:94.0912px;font-family:&quot;Noto Sans CJK KR&quot;;letter-spacing:0;word-spacing:0;fill:#fff;fill-opacity:1;stroke:none;stroke-width:.156818"><path d="M119.59 80.589q-11.386-3.294-18.443-7.34-7.056-4.14-10.726-10.161-3.764 5.927-11.009 10.35-7.15 4.328-17.877 7.245l-7.057-7.81q6.68-1.6 12.138-3.67 5.551-2.164 9.503-5.08 3.952-2.823 6.116-6.399 2.258-3.67 2.352-8.374v-4.328H96.35v4.234q-.094 8.845 7.998 14.678 8.091 5.74 21.64 9.033zm9.69 17.312H96.068v29.64h-10.82V97.9H51.655v-8.938h77.625zM158.92 89.339q-5.27 0-9.504-1.788-4.14-1.787-7.057-4.892-2.916-3.011-4.422-7.057-1.505-4.14-1.505-8.75 0-4.611 1.505-8.657 1.506-4.046 4.422-7.151 2.917-3.011 7.057-4.799 4.14-1.787 9.503-1.787 5.27 0 9.41 1.787 4.234 1.788 7.056 4.799 2.917 3.105 4.423 7.15 1.6 4.047 1.6 8.657t-1.6 8.75q-1.506 4.047-4.423 7.058-2.916 3.105-7.15 4.892-4.14 1.788-9.316 1.788zm0-35.849q-5.74 0-8.845 3.858-3.011 3.858-3.011 9.503 0 5.552 3.105 9.503 3.105 3.952 8.75 3.952 5.646 0 8.75-3.952 3.106-3.951 3.106-9.503 0-5.645-3.105-9.503-3.105-3.858-8.75-3.858zm46.104-10.162v62.1h-10.538v-62.1Zm-54.102 82.613q-1.506 0-2.07-.565-.47-.565-.47-2.07V97.713h10.726v19.195H207v9.033zM109.24 162.166v-8.374H71.508v8.374zm-48.27 6.116v-32.086H71.51v8.94h37.73v-8.94h10.633v32.086q0 1.505-.659 2.07-.565.564-1.976.564H63.511q-1.505 0-2.07-.564-.47-.565-.47-2.07zm68.31 18.441H97.197v16.278H86.28v-16.278H51.656v-8.938h77.625zM63.888 218.15q-1.505 0-2.07-.565-.47-.564-.47-2.07v-22.864h10.726v16.466h50.34v9.033zM174.068 185.783q6.398 0 11.856 1.223 5.457 1.223 9.503 3.481 3.952 2.258 6.21 5.551 2.258 3.294 2.258 7.528 0 4.328-2.258 7.621t-6.21 5.552q-4.046 2.258-9.503 3.387-5.458 1.129-11.95 1.129-6.492 0-11.95-1.13-5.363-1.128-9.315-3.386-3.951-2.259-6.21-5.552-2.164-3.293-2.164-7.621 0-4.14 2.259-7.433 2.258-3.294 6.304-5.646 4.046-2.258 9.409-3.481 5.457-1.223 11.761-1.223zm0 8.374q-8.186 0-13.267 2.446-5.08 2.446-5.08 6.775 0 4.422 5.08 6.962 5.175 2.635 13.267 2.635 8.28 0 13.267-2.635 5.08-2.634 5.08-6.962 0-4.423-4.986-6.775-4.987-2.446-13.36-2.446zm-32.744-17.22q-1.505 0-2.07-.564-.47-.564-.47-2.07V141.56q0-1.412.564-1.976.565-.659 2.07-.659h37.449v8.939h-29.545v20.041l11.667-.094q2.635 0 6.305-.188 3.67-.282 7.527-.659 3.952-.376 7.527-.847 3.576-.564 6.116-1.129v8.657q-2.07.47-5.551 1.035-3.482.564-7.716 1.035-4.234.47-8.844.847-4.61.282-8.939.282-1.035 0-3.67.094H141.324zm50.151 8.187v-49.586h10.632v16.183h11.009v8.94h-11.009v24.463z" style="font-style:normal;font-variant:normal;font-weight:700;font-stretch:normal;font-size:94.0912px;font-family:&quot;KoPubDotum Bold&quot;;text-align:center;text-anchor:middle;fill:#fff;fill-opacity:1;stroke-width:.156818"/></g></svg>