<?xml version="1.0" encoding="utf-8"?>
<!-- Generator: Adobe Illustrator 26.0.0, SVG Export Plug-In . SVG Version: 6.00 Build 0)  -->
<svg version="1.1" id="레이어_1" xmlns="http://www.w3.org/2000/svg" xmlns:xlink="http://www.w3.org/1999/xlink" x="0px"
	 y="0px" viewBox="0 0 1000 1000" style="enable-background:new 0 0 1000 1000;" xml:space="preserve">
<style type="text/css">
	.st0{opacity:0.993;fill:#FABE00;enable-background:new    ;}
	.st1{fill:#FFFFFF;}
</style>
<circle class="st0" cx="500" cy="500" r="499.3"/>
<g>
	<path class="st1" d="M376.8,395.7c-4.9-6.9-11.8-12.1-20.8-15.6c-9-3.5-19.7-5.3-32.2-5.3c-12.1,0-22.5,1.6-31,4.9
		c-8.5,3.3-14.9,7.8-19.3,13.7c-4.3,5.9-6.5,12.5-6.5,20c-0.4,11.6,4.4,20.8,14.4,27.6c10,6.8,24.6,12.4,44,16.7l34.2,7.6
		c39.3,8.7,69.1,22.7,89.4,42c20.3,19.3,30.5,44.5,30.7,75.7c0,24.8-6.2,46.1-18.5,64c-12.3,17.8-30.2,31.5-53.7,40.9
		c-23.5,9.4-51.3,14.1-83.5,14.1c-33.3,0.2-62-4.8-86.1-14.9c-24.1-10.1-42.8-25.2-56.2-45.1c-13.4-19.9-20.4-44.7-20.9-74.4h89.1
		c0.7,12.5,4.2,23.1,10.3,31.8c6.2,8.7,14.5,15.2,25.1,19.4c10.6,4.3,23,6.4,37.4,6.4c13,0,24.3-1.8,33.7-5.4
		c9.4-3.6,16.6-8.6,21.5-14.9c4.9-6.3,7.4-13.7,7.6-22c-0.2-7.4-2.5-13.9-6.9-19.4c-4.4-5.5-11.3-10.2-20.5-14.1
		c-9.2-3.9-21.4-7.6-36.4-11l-41.3-9.8c-35.1-8.2-62.1-21.1-81-38.8c-18.8-17.7-28.2-41-28-69.8c-0.2-23.9,6.2-45.1,19.3-63.6
		s31.1-32.7,54.3-42.8c23.2-10.1,49.6-15.1,79.3-15.1c29.9,0,56.1,5.1,78.6,15.2c22.5,10.1,40,24.5,52.4,43.1
		c12.4,18.6,18.7,39.9,18.9,64h-88.8C384.6,410.8,381.7,402.6,376.8,395.7z"/>
	<path class="st1" d="M527.6,303.6h162.7c28.6,0,52.9,4.1,72.9,12.4c20,8.2,35.1,19.9,45.2,34.9c10.1,15,15.2,32.5,15.2,52.4
		c0,14.9-3.1,28.1-9.2,39.8c-6.2,11.7-14.8,21.4-25.8,29.2c-11.1,7.8-23.7,13.1-38,16v3.8c15.8,0.7,30.5,5.1,44.1,13
		c13.7,8,24.5,19,32.5,33.1c8,14.1,12,30.4,12,48.9c-0.2,21.4-5.7,40.3-16.4,56.6c-10.8,16.4-26.4,29.3-46.9,38.8
		c-20.5,9.5-44.9,14.3-73.3,14.3h-175V303.6z M703.1,460.3c8.3-3.6,14.8-8.8,19.4-15.5c4.6-6.7,6.9-14.8,6.9-24.2
		c0-8.7-2.2-16.3-6.5-23c-4.3-6.6-10.5-11.6-18.5-15.1c-8-3.4-17.4-5.2-28.3-5.2h-56.2V466h54.6C685.2,465.9,694.7,464,703.1,460.3z
		 M715.2,616.4c9.1-3.7,15.9-8.9,20.4-15.5c4.4-6.6,6.7-14.7,6.7-24.3c0-10.1-2.4-19.1-7.2-26.8c-4.8-7.7-11.7-13.6-20.6-17.7
		c-9-4.1-19.6-6.1-31.9-6.1h-62.5V622h60.6C694.5,622,706,620.1,715.2,616.4z"/>
</g>
</svg>
